# xmcd CD database file
#
# Track frame offsets:
#	150
#	22358
#	48270
#	70874
#	94989
#	115892
#	138060
#	162304
#	184955
#	206986
#	229852
#	252322
#	274486
#	295257
#	317018
#	334791
#
# Disc length: 4769 seconds
#
# Revision: 2
# Processed by: cddbd v1.5.2PL0 Copyright (c) Steve Scherf et al.
# Submitted via: CDex 1.51
#
DISCID=fc129f10
DTITLE=vari - Salsa Sensual Caleta  disk 1
DYEAR=2010
DGENRE=Salsa
TTITLE0=Solo con un beso - Puerto Rican Power
TTITLE1=Aprendere - Max Torres
TTITLE2=Detenedla ya - Max Torres
TTITLE3=Mentiras - Octavia Dimension
TTITLE4=Tu Carcel - International Bahia
TTITLE5=No me tires la 1ra. piedra - Tricoche. T.O.
TTITLE6=Caricias prohibitas - Vitti Ruis
TTITLE7=No te olvidare - H. Ralph
TTITLE8=Sinceridad - Org.La Solucion
TTITLE9=Este amor Jamas - Alex Leon
TTITLE10=Y tu no estas - Juan Carlos Coronel
TTITLE11=A fuego lento - Mario Ortiz
TTITLE12=Brindis de Amor - Grupo star
TTITLE13=Amor de Mandrugada - Amilkar Boscan
TTITLE14=Yo te Adoro - Omar Alfaro
TTITLE15=Asi no te amara jamas - Isidoro infante
EXTD=YEAR: 2010
EXTT0=
EXTT1=
EXTT2=
EXTT3=
EXTT4=
EXTT5=
EXTT6=
EXTT7=
EXTT8=
EXTT9=
EXTT10=
EXTT11=
EXTT12=
EXTT13=
EXTT14=
EXTT15=
PLAYORDER=
